# xmcd
#
# Track frame offsets:
#	150
#	23212
#	48362
#	65922
#	90630
#	107742
#	122167
#	144217
#	164612
#	178522
#	193932
#	205890
#	228912
#
# Disc length: 3226 seconds
#
# Revision: 1
# Processed by: cddbd v1.5.1PL0 Copyright (c) Steve Scherf et al.
# Submitted via: dBpowerAMP V4.0
#
DISCID=b80c980d
DTITLE=Sonny Moorman And The Dogs - Telegraph Road
DYEAR=1996
DGENRE=Blues/Rock
TTITLE0=Up To My Neck In The Blues
TTITLE1=Old Slow Blues
TTITLE2=Rockin' The Night Away
TTITLE3=Sonny's Blues
TTITLE4=Who's Been Talking?
TTITLE5=Too Much
TTITLE6=Metal Cowboy Blues
TTITLE7=Telegraph Road
TTITLE8=Cincinnati Shuffle
TTITLE9=When Something Is Wrong With My Baby
TTITLE10=Fast Cars, Pretty Women, and Low Down Rhythm and Blues
TTITLE11=All Comin' Down
TTITLE12=Bad Woman Blues
EXTD=
EXTT0=
EXTT1=
EXTT2=
EXTT3=
EXTT4=
EXTT5=
EXTT6=
EXTT7=
EXTT8=
EXTT9=
EXTT10=
EXTT11=
EXTT12=
PLAYORDER=
